<?xml version="1.0" encoding="utf-8"?>
<!-- Generator: Adobe Illustrator 16.0.0, SVG Export Plug-In . SVG Version: 6.00 Build 0)  -->
<!DOCTYPE svg PUBLIC "-//W3C//DTD SVG 1.1//EN" "http://www.w3.org/Graphics/SVG/1.1/DTD/svg11.dtd">
<svg version="1.1" id="Calque_1" xmlns="http://www.w3.org/2000/svg" xmlns:xlink="http://www.w3.org/1999/xlink" x="0px" y="0px"
	 width="122px" height="41px" viewBox="0 0 122 41" enable-background="new 0 0 122 41" xml:space="preserve">
<g>
	<path fill="#7FB61C" d="M38.634,0c-6.737,0-12.2,5.463-12.2,12.2c0,0.003,0,0.007,0,0.012l0,25.405h0c0,1.684,1.366,3.05,3.05,3.05
		c1.685,0,3.051-1.366,3.051-3.05V22.755c1.795,1.04,3.875,1.645,6.099,1.645c6.738,0,12.2-5.461,12.2-12.199
		C50.835,5.463,45.373,0,38.634,0z M38.634,20.333c-4.475,0-6.087-3.615-6.099-8.083v-0.049h-0.001c0-4.491,1.609-8.133,6.1-8.133
		c4.492,0,6.1,3.642,6.1,8.133C44.735,16.693,43.126,20.333,38.634,20.333z"/>
	<path fill="#7FB61C" d="M12.2,0C5.462,0,0,5.462,0,12.2s5.462,12.199,12.2,12.199h2.034c1.123,0,2.033-0.91,2.033-2.033
		s-0.911-2.033-2.033-2.033l0,0H12.2c-4.492,0-6.1-3.64-6.1-8.133c0-4.492,1.608-8.133,6.1-8.133c4.492,0,6.1,3.643,6.1,8.134
		l0,9.15l0,0c0,1.684,1.366,3.049,3.05,3.049c1.685,0,3.05-1.365,3.05-3.049l0-9.149C24.4,5.463,18.938,0,12.2,0z"/>
	<circle fill="#7FB61C" cx="55.91" cy="3.043" r="3.042"/>
</g>
<g>
	<path fill="#C5C5C8" d="M109.8,0c-6.738,0-12.2,5.463-12.2,12.2c0,6.738,5.462,12.199,12.2,12.199S122,18.938,122,12.201
		C122,5.463,116.538,0,109.8,0z M109.8,20.333c-4.491,0-6.1-3.64-6.1-8.132c0-4.491,1.608-8.133,6.1-8.133
		c4.492,0,6.101,3.642,6.101,8.133C115.9,16.693,114.292,20.333,109.8,20.333z"/>
	<path fill="#C5C5C8" d="M86.417,0c-2.347,0-4.482,0.891-6.102,2.344c-1.619-1.452-3.753-2.343-6.099-2.343
		c-5.054,0.001-9.151,4.098-9.151,9.151v4.067c0,0.001,0,0.003,0,0.005v2.026h0c0,2.808-0.242,5.083-3.049,5.083
		c-2.806,0-3.048-2.274-3.048-5.083v-4.166c0-1.684-1.364-3.05-3.05-3.05c-1.684,0-3.05,1.366-3.05,3.05v4.166
		c0,5.053,4.096,9.149,9.147,9.149c5.053,0,9.15-4.096,9.15-9.149v-4.166c0-0.002,0-0.005,0-0.009V9.151l0,0
		c0-2.809,0.242-5.084,3.05-5.084c2.801,0,3.05,2.265,3.051,5.063c0,0.007-0.001,0.013-0.001,0.02l0,12.199
		c0,1.684,1.365,3.049,3.05,3.049c1.684,0,3.05-1.366,3.05-3.049V9.152h0v0c0-2.808,0.241-5.084,3.05-5.084
		c2.808,0,3.05,2.276,3.05,5.083l-0.001,0l0,12.199c0,1.684,1.366,3.049,3.051,3.049c1.685,0,3.049-1.365,3.049-3.049l0-12.199l0,0
		C95.566,4.098,91.47,0.001,86.417,0z"/>
</g>
</svg>
